<?xml version="1.0" standalone="no"?>
<!DOCTYPE svg PUBLIC "-//W3C//DTD SVG 20010904//EN"
 "http://www.w3.org/TR/2001/REC-SVG-20010904/DTD/svg10.dtd">
<svg version="1.0" xmlns="http://www.w3.org/2000/svg"
 width="200.000000pt" height="200.000000pt" viewBox="0 0 200.000000 200.000000"
 preserveAspectRatio="xMidYMid meet">

<g transform="translate(0.000000,200.000000) scale(0.100000,-0.100000)"
fill="#000000" stroke="none">
<path d="M475 1886 c-58 -88 -62 -327 -10 -495 7 -19 5 -22 -11 -19 -38 7
-104 172 -104 261 0 34 -20 64 -33 50 -15 -14 -6 -116 18 -197 36 -125 66
-177 132 -233 169 -140 326 -333 272 -333 -6 0 -43 30 -83 66 -107 100 -123
106 -318 101 l-163 -3 3 -25 c3 -31 36 -77 116 -165 47 -52 80 -78 123 -97 73
-33 164 -45 198 -27 32 17 135 7 177 -17 65 -38 113 -172 121 -344 4 -88 6
-92 47 -109 24 -10 30 -19 30 -41 0 -34 -12 -37 -41 -8 -11 11 -24 18 -27 14
-14 -14 49 -55 83 -55 34 0 97 41 83 55 -3 4 -16 -3 -27 -14 -30 -30 -51 -27
-51 8 0 24 5 31 29 36 16 3 34 12 39 18 5 7 12 68 15 137 3 69 12 150 20 180
30 111 119 150 216 95 l43 -25 -6 23 c-5 22 -2 24 75 35 94 13 179 49 228 95
57 54 151 206 151 245 0 33 -1 34 -28 27 -15 -4 -83 -10 -152 -14 -92 -5 -136
-12 -165 -26 -43 -21 -108 -84 -157 -152 -25 -35 -34 -40 -49 -33 -31 17 -30
26 10 86 44 66 163 184 258 256 40 30 73 67 93 100 57 98 109 315 80 333 -20
12 -31 -9 -40 -76 -13 -103 -71 -229 -106 -229 -18 0 -18 2 6 79 57 180 23
470 -53 459 -19 -3 -23 -11 -28 -66 -8 -86 -22 -99 -84 -77 -88 30 -101 -2
-26 -65 73 -62 95 -118 95 -250 1 -92 -2 -111 -23 -152 -29 -57 -77 -111 -94
-105 -9 3 -11 29 -9 94 2 54 -1 93 -6 97 -10 6 -18 -25 -43 -164 -11 -67 -42
-140 -59 -140 -6 0 -10 17 -10 37 0 52 -10 35 -20 -35 -4 -33 -18 -75 -31 -95
-21 -32 -27 -35 -54 -29 -16 4 -89 7 -162 6 l-131 0 -16 33 c-9 19 -16 50 -17
71 0 20 -4 46 -9 57 -7 17 -9 15 -9 -12 -1 -46 -25 -42 -45 7 -12 30 -46 220
-46 257 0 2 -4 3 -10 3 -6 0 -10 -38 -10 -94 0 -111 -10 -125 -52 -75 -70 83
-93 188 -68 312 16 81 42 130 87 164 91 68 77 108 -24 71 -47 -17 -64 3 -72
84 -5 55 -9 63 -28 66 -14 2 -27 -5 -38 -22z m1285 -824 c0 -21 -129 -199
-158 -219 -38 -25 -139 -60 -197 -67 -22 -3 -6 3 35 14 84 23 169 61 192 87 9
10 39 55 66 99 l50 82 -102 -3 c-99 -2 -100 -2 -21 4 127 11 135 11 135 3z
m-251 -22 c-14 -4 -38 -15 -53 -25 -29 -19 -116 -135 -116 -154 0 -7 -4 -10
-9 -6 -10 5 42 90 82 134 30 33 78 61 102 60 16 -1 15 -2 -6 -9z m-1157 -7
l-103 -4 43 -52 c110 -135 127 -147 245 -176 43 -11 70 -20 59 -20 -29 -1
-136 29 -176 49 -20 10 -53 38 -73 63 -53 65 -107 136 -107 142 0 3 48 4 108
3 l107 -2 -103 -3z m194 -9 c19 -9 56 -41 84 -71 l49 -54 -27 -38 c-15 -21
-29 -37 -31 -35 -2 2 8 19 22 38 l26 34 -40 46 c-43 48 -83 74 -134 87 -25 6
-26 7 -7 8 13 1 39 -6 58 -15z m812 -209 c-3 -3 -9 2 -12 12 -6 14 -5 15 5 6
7 -7 10 -15 7 -18z m-303 -435 c8 -13 -5 -13 -25 0 -13 8 -13 10 2 10 9 0 20
-4 23 -10z"/>
<path d="M712 685 c6 -31 -6 -32 -26 -3 -21 29 -33 15 -13 -16 20 -29 10 -42
-15 -19 -20 18 -25 4 -6 -15 7 -7 13 -29 14 -49 1 -27 9 -43 33 -65 40 -36 75
-36 112 1 41 41 40 90 -2 125 -17 14 -41 26 -55 26 -17 0 -24 6 -24 20 0 11
-5 20 -11 20 -7 0 -9 -10 -7 -25z m42 -70 c9 -25 -5 -45 -30 -45 -26 0 -40 20
-30 45 3 8 16 15 30 15 13 0 26 -7 30 -15z"/>
<path d="M1301 681 c-7 -12 -18 -17 -33 -14 -38 7 -77 -14 -95 -51 -14 -29
-14 -39 -3 -66 13 -32 54 -60 89 -60 30 0 81 48 81 77 0 14 10 33 23 44 l22
19 -27 -6 c-31 -7 -37 6 -13 26 8 7 15 17 15 23 0 6 -12 0 -26 -14 l-26 -24 7
33 c7 36 1 42 -14 13z m13 -73 c8 -14 7 -21 -6 -34 -30 -30 -75 9 -48 42 16
18 39 15 54 -8z"/>
</g>
</svg>
